# xmcd
#
# Track frame offsets: 
#        150
#        25766
#        72145
#        93593
#        112359
#        145726
#        171054
#
# Disc length: 2463 seconds
#
# Revision: 0
# Processed by: cddbd v1.5.2PL0 Copyright (c) Steve Scherf et al.
# Submitted via: ExactAudioCopy v1.0b4
#
DISCID=5d099d07
DTITLE=Clarence Gatemouth Brown And Gate's Express - Live In Concert (
DTITLE=LP) Internationales Jazzfestival Bern 1980
DYEAR=1980
DGENRE=Blues
TTITLE0=Dollar Got The Blues
TTITLE1=The Drifters
TTITLE2=Pressure Cooker
TTITLE3=Six Levels Below Plant Live
TTITLE4=Gate' s Tune
TTITLE5=One O' Clock Jump
TTITLE6=Honey Boy
EXTD=
EXTT0=
EXTT1=
EXTT2=
EXTT3=
EXTT4=
EXTT5=
EXTT6=
PLAYORDER=
